<mxfile host="app.diagrams.net" modified="2021-04-13T03:54:34.498Z" agent="5.0 (Macintosh; Intel Mac OS X 10_15_6) AppleWebKit/605.1.15 (KHTML, like Gecko) Version/14.0.3 Safari/605.1.15" etag="WNJP-Z3ZpVLpZZrrJcD9" version="14.5.10" type="github">
  <diagram id="O5blFa7L9_QzMBP0XI0-" name="Page-1">
    <mxGraphModel dx="945" dy="1844" grid="1" gridSize="10" guides="1" tooltips="1" connect="1" arrows="1" fold="1" page="1" pageScale="1" pageWidth="827" pageHeight="1169" math="0" shadow="0">
      <root>
        <mxCell id="0" />
        <mxCell id="1" parent="0" />
        <mxCell id="ix2rLgj7zzMYFasW1nlt-1" value="" style="rounded=0;whiteSpace=wrap;html=1;dashed=1;" vertex="1" parent="1">
          <mxGeometry x="170" y="-750" width="410" height="280" as="geometry" />
        </mxCell>
        <mxCell id="ix2rLgj7zzMYFasW1nlt-2" value="Spring Boot" style="rounded=1;whiteSpace=wrap;html=1;" vertex="1" parent="1">
          <mxGeometry x="200" y="-650" width="190" height="60" as="geometry" />
        </mxCell>
        <mxCell id="ix2rLgj7zzMYFasW1nlt-3" value="MySQL" style="shape=cylinder3;whiteSpace=wrap;html=1;boundedLbl=1;backgroundOutline=1;size=15;" vertex="1" parent="1">
          <mxGeometry x="200" y="-560" width="60" height="80" as="geometry" />
        </mxCell>
        <mxCell id="ix2rLgj7zzMYFasW1nlt-4" value="Redis" style="shape=cylinder3;whiteSpace=wrap;html=1;boundedLbl=1;backgroundOutline=1;size=15;" vertex="1" parent="1">
          <mxGeometry x="330" y="-560" width="60" height="80" as="geometry" />
        </mxCell>
        <mxCell id="ix2rLgj7zzMYFasW1nlt-5" value="Threfit RPC" style="rounded=1;whiteSpace=wrap;html=1;" vertex="1" parent="1">
          <mxGeometry x="410" y="-650" width="120" height="60" as="geometry" />
        </mxCell>
        <mxCell id="ix2rLgj7zzMYFasW1nlt-6" value="KLMS API服务" style="rounded=1;whiteSpace=wrap;html=1;" vertex="1" parent="1">
          <mxGeometry x="200" y="-740" width="330" height="60" as="geometry" />
        </mxCell>
      </root>
    </mxGraphModel>
  </diagram>
</mxfile>
